# xmcd
#
# Track frame offsets: 
#        150
#        25246
#        54884
#        71816
#        96480
#        114707
#        129960
#        151803
#        167857
#        187289
#        206847
#        225987
#        252587
#        273406
#        304959
#
# Disc length: 4409 seconds
#
# Revision: 0
# Processed by: cddbd v1.5.2PL0 Copyright (c) Steve Scherf et al.
# Submitted via: ExactAudioCopy v1.3
#
DISCID=db11370f
DTITLE=Vargas Blues Band - King of Latin Blues [disk 2]
DYEAR=2018
DGENRE=Blues Rock
TTITLE0=Blues Latino
TTITLE1=Tierra del vino
TTITLE2=Wahabu
TTITLE3=Buenos Aires Blues
TTITLE4=Aguaclara (feat Juan Gomez Chicuelo)
TTITLE5=Spanish Fly
TTITLE6=Del sur
TTITLE7=Vivir al alba
TTITLE8=New York City Blues
TTITLE9=Sangre Espanola
TTITLE10=Illegaly
TTITLE11=Parisienne Walkways
TTITLE12=I Wonder If You Ever
TTITLE13=Walking The Back Streets And Crying
TTITLE14=1969
EXTD=
EXTT0=
EXTT1=
EXTT2=
EXTT3=
EXTT4=
EXTT5=
EXTT6=
EXTT7=
EXTT8=
EXTT9=
EXTT10=
EXTT11=
EXTT12=
EXTT13=
EXTT14=
PLAYORDER=
